<svg xmlns="http://www.w3.org/2000/svg" width="442.501" height="435.164" viewBox="0 0 442.501 435.164">
  <defs>
    <style>
      .cls-1 {
        fill: #e0f0ff;
      }
    </style>
  </defs>
  <path id="Intersection_1" data-name="Intersection 1" class="cls-1" d="M271.98,435.164a14.324,14.324,0,0,1-11.241-13.976V336.748a14.337,14.337,0,0,1,28.674,0v84.441a14.317,14.317,0,0,1-11.23,13.976ZM78.443,354.173a14.309,14.309,0,0,1,0-20.25l59.8-59.713a14.329,14.329,0,0,1,20.279,20.251l-59.8,59.712a14.357,14.357,0,0,1-20.278,0Zm313.19-59.712a14.326,14.326,0,1,1,20.279-20.24L439.5,301.765V342.26ZM11.342,172.133a14.317,14.317,0,1,1,0-28.634H95.9a14.317,14.317,0,1,1,0,28.634ZM391.633,41.423a14.309,14.309,0,0,1,0-20.25L412.839,0H439.5V13.873l-27.589,27.55a14.358,14.358,0,0,1-20.279,0Zm-253.393,0L96.759,0h40.554l21.206,21.173a14.329,14.329,0,0,1-20.279,20.25Z" transform="translate(3.001)"/>
</svg>
