<svg id="Icn_LN" xmlns="http://www.w3.org/2000/svg" width="31.008" height="31.023" viewBox="0 0 31.008 31.023">
  <defs>
    <style>
      .cls-1 {
        fill: gray;
      }
    </style>
  </defs>
  <g id="Group_25" data-name="Group 25">
    <rect id="Rectangle_15" data-name="Rectangle 15" class="cls-1" width="6.402" height="20.682" transform="translate(0.615 10.341)"/>
    <path id="Path_28" data-name="Path 28" class="cls-1" d="M-491.5,94.533a3.8,3.8,0,0,0,3.785-3.817A3.8,3.8,0,0,0-491.5,86.9a3.8,3.8,0,0,0-3.786,3.817A3.8,3.8,0,0,0-491.5,94.533Z" transform="translate(495.284 -86.899)"/>
  </g>
  <path id="Path_29" data-name="Path 29" class="cls-1" d="M-480.627,104.8c0-2.908,1.338-4.64,3.9-4.64,2.353,0,3.485,1.663,3.485,4.64v10.857h6.371v-13.1c0-5.54-3.14-8.218-7.524-8.218a7.212,7.212,0,0,0-6.234,3.418V94.974h-6.14v20.682h6.14Z" transform="translate(497.877 -84.633)"/>
</svg>
