<svg xmlns="http://www.w3.org/2000/svg" viewBox="0 0 170.27 40"><defs><style>.cls-1{fill:#ef402f;}.cls-2{fill:#f4b223;}.cls-3{fill:#2c9942;}.cls-4{fill:#0075c9;}.cls-5{fill:#101820;}</style></defs><g id="Layer_2" data-name="Layer 2"><g id="Layer_1-2" data-name="Layer 1"><path class="cls-1" d="M2.43,24.87h0A2.42,2.42,0,0,0,0,27.29V37.57A2.43,2.43,0,0,0,2.43,40H12.71a2.42,2.42,0,0,0,2.42-2.43h0a2.42,2.42,0,0,0-2.42-2.43H6.9a2,2,0,0,1-2-2V27.29A2.42,2.42,0,0,0,2.43,24.87Z"/><path class="cls-2" d="M0,7.23V17.6A2.41,2.41,0,0,0,2.4,20h0a2.46,2.46,0,0,0,2.46-2.46V11.74a2,2,0,0,1,2-2h5.86a2.4,2.4,0,0,0,2.4-2.4v-.1a2.36,2.36,0,0,0-2.35-2.36H2.36A2.36,2.36,0,0,0,0,7.23Z"/><path class="cls-3" d="M28.23,35.14H22.42A2.43,2.43,0,0,0,20,37.57h0A2.43,2.43,0,0,0,22.42,40H32.7a2.43,2.43,0,0,0,2.43-2.43V27.29a2.42,2.42,0,0,0-2.43-2.42h0a2.42,2.42,0,0,0-2.43,2.42v5.82A2,2,0,0,1,28.23,35.14Z"/><rect class="cls-4" x="19.99" width="20.01" height="20.01" rx="4.28"/><path class="cls-5" d="M59.16,15.58a9.08,9.08,0,0,0-4.58-1.1,9.76,9.76,0,0,0-5.22,1.36A8.72,8.72,0,0,0,46,19.5a11.3,11.3,0,0,0-1.14,5.1,11.22,11.22,0,0,0,1.24,5.29,9.12,9.12,0,0,0,3.66,3.78,11.43,11.43,0,0,0,5.86,1.4,14.49,14.49,0,0,0,6.63-1.52l-.32-3.72a11.74,11.74,0,0,1-5.87,1.48,6.88,6.88,0,0,1-4.42-1.4,6.31,6.31,0,0,1-2.14-4.47H62.85A10.25,10.25,0,0,0,63.13,23a9.22,9.22,0,0,0-1-4.4A7.39,7.39,0,0,0,59.16,15.58Zm-9.5,6.82c.66-2.78,2.29-4.16,4.88-4.16a3.74,3.74,0,0,1,3,1.2,4.49,4.49,0,0,1,1,3Z"/><path class="cls-5" d="M74.89,14.48a9.14,9.14,0,0,0-5.8,2l-.16-1.64H65V34.67h4.48V20.2a5.14,5.14,0,0,1,4.32-2,4,4,0,0,1,3.38,1.36,7.23,7.23,0,0,1,1,4.32V34.67h4.44v-11a10.58,10.58,0,0,0-1.92-6.72A6.91,6.91,0,0,0,74.89,14.48Z"/><path class="cls-5" d="M91.05,9.8l-4.48.48v4.56H84l-.4,3.6h3V30a5.07,5.07,0,0,0,1.34,3.56,5,5,0,0,0,3.94,1.48h3.44l.4-3.64h-1.2a9.14,9.14,0,0,1-2.38-.2,1.21,1.21,0,0,1-.86-.86,9.35,9.35,0,0,1-.2-2.42V18.44h4.68v-3.6H91.05Z"/><path class="cls-5" d="M111.48,15.82a10.23,10.23,0,0,0-5.4-1.38,10.12,10.12,0,0,0-5.35,1.38,9.2,9.2,0,0,0-3.5,3.74A11,11,0,0,0,96,24.76,11,11,0,0,0,97.23,30a9.2,9.2,0,0,0,3.5,3.74,10.12,10.12,0,0,0,5.35,1.38,10.23,10.23,0,0,0,5.4-1.38A9.09,9.09,0,0,0,115,30a11.26,11.26,0,0,0,1.2-5.19,11.28,11.28,0,0,0-1.2-5.2A9.09,9.09,0,0,0,111.48,15.82Zm-1.34,13.73a5.54,5.54,0,0,1-8.1,0,7.39,7.39,0,0,1-1.43-4.79A7.42,7.42,0,0,1,102,20a5.5,5.5,0,0,1,8.1,0,7.26,7.26,0,0,1,1.46,4.78A7.23,7.23,0,0,1,110.14,29.55Z"/><path class="cls-5" d="M140.68,14.48a8.89,8.89,0,0,0-3.94.82A6.71,6.71,0,0,0,134,17.64a6.43,6.43,0,0,0-6-3.16,9.24,9.24,0,0,0-6,2.12l-.28-1.76h-3.72V34.67h4.48V20.24a5.13,5.13,0,0,1,4.36-2,3.68,3.68,0,0,1,3.1,1.32,7.23,7.23,0,0,1,1,4.36V34.67h4.44V23.48a6.29,6.29,0,0,1,1-3.8,3.9,3.9,0,0,1,3.4-1.44,3.56,3.56,0,0,1,3.1,1.3,7.11,7.11,0,0,1,.94,4.1v11h4.47V23.4q0-4.32-1.92-6.62C145.23,15.24,143.29,14.48,140.68,14.48Z"/><path class="cls-5" d="M169.07,19.56a9.09,9.09,0,0,0-3.48-3.74,11.18,11.18,0,0,0-10.76,0,9.27,9.27,0,0,0-3.5,3.74,11.67,11.67,0,0,0,0,10.39,9.27,9.27,0,0,0,3.5,3.74,11.18,11.18,0,0,0,10.76,0A9.09,9.09,0,0,0,169.07,30a11.26,11.26,0,0,0,1.2-5.19A11.28,11.28,0,0,0,169.07,19.56Zm-4.82,10a5,5,0,0,1-4.06,1.76,4.91,4.91,0,0,1-4-1.76,7.34,7.34,0,0,1-1.44-4.79A7.37,7.37,0,0,1,156.15,20a4.9,4.9,0,0,1,4-1.78A5,5,0,0,1,164.25,20a7.31,7.31,0,0,1,1.46,4.78A7.29,7.29,0,0,1,164.25,29.55Z"/></g></g></svg>