<svg xmlns="http://www.w3.org/2000/svg" width="495.263" height="496.373" viewBox="0 0 495.263 496.373">
  <defs>
    <style>
      .cls-1 {
        fill: #ffda00;
      }
    </style>
  </defs>
  <g id="Shp_Entomo" transform="translate(-281.223 -1536.303)">
    <path id="Path_601" data-name="Path 601" class="cls-1" d="M311.69,426.222a12.387,12.387,0,0,1-12.381-12.391V265.957a14.226,14.226,0,0,0-14.221-14.221H138.076a13.356,13.356,0,0,1-13.348-13.348A12.405,12.405,0,0,1,137.109,226H301.252a23.7,23.7,0,0,1,23.7,23.7v164.93a11.612,11.612,0,0,1-11.595,11.594Z" transform="translate(451.533 1310.306)"/>
    <path id="Path_602" data-name="Path 602" class="cls-1" d="M293.832,239.251a12.389,12.389,0,0,1-12.391,12.391H133.567a14.22,14.22,0,0,0-14.22,14.221V412.874A13.368,13.368,0,0,1,106,426.222a12.4,12.4,0,0,1-12.391-12.391V249.7a23.7,23.7,0,0,1,23.7-23.7h164.93a11.612,11.612,0,0,1,11.595,11.595Z" transform="translate(187.616 1310.306)"/>
    <path id="Path_603" data-name="Path 603" class="cls-1" d="M106.86,257.235a12.387,12.387,0,0,1,12.391,12.381V417.491a14.219,14.219,0,0,0,14.221,14.22H280.484a13.368,13.368,0,0,1,13.348,13.349,12.4,12.4,0,0,1-12.391,12.391H117.308a23.7,23.7,0,0,1-23.7-23.7V268.82A11.6,11.6,0,0,1,105.2,257.235Z" transform="translate(187.616 1575.216)"/>
    <path id="Path_604" data-name="Path 604" class="cls-1" d="M124.728,444.205a12.389,12.389,0,0,1,12.391-12.391H284.993a14.22,14.22,0,0,0,14.221-14.221v-147a13.364,13.364,0,0,1,13.348-13.358,12.407,12.407,0,0,1,12.391,12.391V433.768a23.71,23.71,0,0,1-23.7,23.7H136.322a11.606,11.606,0,0,1-11.594-11.595Z" transform="translate(451.533 1575.208)"/>
  </g>
</svg>
