<svg xmlns="http://www.w3.org/2000/svg" width="153.462" height="61.17" viewBox="0 0 153.462 61.17">
    <defs>
        <style>
            .prefix__cls-5{fill:#404241}
        </style>
    </defs>
    <g id="prefix__Footer_Logo" transform="translate(-173.269 -247.791)">
        <path id="prefix__Path_581" d="M175.463 270.2h-.005a2.189 2.189 0 0 0-2.189 2.189v9.263a2.189 2.189 0 0 0 2.189 2.189h9.263a2.189 2.189 0 0 0 2.189-2.189 2.189 2.189 0 0 0-2.189-2.19h-5.233a1.835 1.835 0 0 1-1.836-1.835v-5.238a2.189 2.189 0 0 0-2.189-2.189z" data-name="Path 581" style="fill:#e82621"/>
        <path id="prefix__Path_582" d="M173.269 254.306v9.351a2.166 2.166 0 0 0 2.166 2.166 2.216 2.216 0 0 0 2.217-2.217v-5.233a1.813 1.813 0 0 1 1.813-1.812h5.279a2.167 2.167 0 0 0 2.166-2.167v-.088a2.124 2.124 0 0 0-2.124-2.124h-9.393a2.124 2.124 0 0 0-2.124 2.124z" data-name="Path 582" style="fill:#f5a600"/>
        <path id="prefix__Path_583" d="M198.716 279.464h-5.238a2.19 2.19 0 0 0-2.19 2.19 2.19 2.19 0 0 0 2.19 2.189h9.262a2.189 2.189 0 0 0 2.189-2.189v-9.263a2.189 2.189 0 0 0-2.189-2.189 2.189 2.189 0 0 0-2.189 2.189v5.238a1.835 1.835 0 0 1-1.835 1.835z" data-name="Path 583" style="fill:#39a244"/>
        <path id="prefix__Rectangle_1530" d="M3.862 0h10.309a3.861 3.861 0 0 1 3.861 3.861v10.31a3.861 3.861 0 0 1-3.861 3.861H3.862A3.862 3.862 0 0 1 0 14.171V3.862A3.862 3.862 0 0 1 3.862 0z" data-name="Rectangle 1530" transform="translate(191.288 247.791)" style="fill:#0064bf"/>
        <g id="prefix__Group_760" data-name="Group 760">
            <path id="prefix__Path_584" d="M226.585 261.831a8.229 8.229 0 0 0-4.127-.991 8.836 8.836 0 0 0-4.7 1.225 7.939 7.939 0 0 0-3.027 3.3 10.774 10.774 0 0 0 .09 9.372 8.317 8.317 0 0 0 3.3 3.406 10.375 10.375 0 0 0 5.28 1.261 13.191 13.191 0 0 0 5.983-1.369l-.288-3.352a10.647 10.647 0 0 1-5.3 1.333 6.243 6.243 0 0 1-3.983-1.261 5.719 5.719 0 0 1-1.929-4.037h12.039a9.356 9.356 0 0 0 .252-2.2 8.324 8.324 0 0 0-.919-3.965 6.69 6.69 0 0 0-2.671-2.722zm-8.561 6.145q.9-3.747 4.4-3.748a3.362 3.362 0 0 1 2.739 1.081 4.025 4.025 0 0 1 .9 2.667z" class="prefix__cls-5" data-name="Path 584"/>
            <path id="prefix__Path_585" d="M240.768 260.84a8.267 8.267 0 0 0-5.226 1.8l-.145-1.478h-3.568v17.878h4.037v-13.046a4.638 4.638 0 0 1 3.893-1.766 3.564 3.564 0 0 1 3.045 1.225 6.542 6.542 0 0 1 .919 3.893v9.7h4v-9.948a9.552 9.552 0 0 0-1.73-6.056 6.244 6.244 0 0 0-5.225-2.202z" class="prefix__cls-5" data-name="Path 585"/>
            <path id="prefix__Path_586" d="M255.33 256.623l-4.037.432v4.109h-2.343l-.36 3.244h2.7v10.453a4.614 4.614 0 0 0 1.207 3.208 4.546 4.546 0 0 0 3.551 1.333h3.1l.361-3.28h-1.082a8.489 8.489 0 0 1-2.144-.18 1.1 1.1 0 0 1-.775-.775 8.7 8.7 0 0 1-.18-2.181v-8.578h4.217v-3.244h-4.215z" class="prefix__cls-5" data-name="Path 586"/>
            <path id="prefix__Path_587" d="M273.747 262.047a10.074 10.074 0 0 0-9.7 0 8.355 8.355 0 0 0-3.154 3.37 10.54 10.54 0 0 0 0 9.372 8.348 8.348 0 0 0 3.154 3.37 10.074 10.074 0 0 0 9.7 0 8.225 8.225 0 0 0 3.136-3.37 10.688 10.688 0 0 0 0-9.372 8.231 8.231 0 0 0-3.136-3.37zm-1.207 12.381a4.491 4.491 0 0 1-3.658 1.586 4.438 4.438 0 0 1-3.641-1.586 7.83 7.83 0 0 1 0-8.632 4.419 4.419 0 0 1 3.641-1.6 4.472 4.472 0 0 1 3.658 1.6 7.736 7.736 0 0 1 0 8.632z" class="prefix__cls-5" data-name="Path 587"/>
            <path id="prefix__Path_588" d="M300.059 260.84a8.086 8.086 0 0 0-3.55.739 6.18 6.18 0 0 0-2.469 2.108 5.791 5.791 0 0 0-5.371-2.847 8.353 8.353 0 0 0-5.37 1.91l-.253-1.586h-3.352v17.878h4.037V266.03a4.64 4.64 0 0 1 3.929-1.8 3.311 3.311 0 0 1 2.794 1.189 6.524 6.524 0 0 1 .919 3.929v9.7h4V268.95a5.716 5.716 0 0 1 .938-3.425 3.518 3.518 0 0 1 3.063-1.3 3.213 3.213 0 0 1 2.793 1.171 6.377 6.377 0 0 1 .848 3.7v9.948h4.036v-10.166a9.077 9.077 0 0 0-1.73-5.966 6.466 6.466 0 0 0-5.262-2.072z" class="prefix__cls-5" data-name="Path 588"/>
            <path id="prefix__Path_589" d="M325.65 265.417a8.231 8.231 0 0 0-3.136-3.37 10.076 10.076 0 0 0-9.7 0 8.362 8.362 0 0 0-3.154 3.37 10.54 10.54 0 0 0 0 9.372 8.355 8.355 0 0 0 3.154 3.37 10.076 10.076 0 0 0 9.7 0 8.225 8.225 0 0 0 3.136-3.37 10.7 10.7 0 0 0 0-9.372zm-4.343 9.011a4.493 4.493 0 0 1-3.659 1.586 4.437 4.437 0 0 1-3.64-1.586 7.825 7.825 0 0 1 0-8.632 4.419 4.419 0 0 1 3.64-1.6 4.474 4.474 0 0 1 3.659 1.6 7.74 7.74 0 0 1 0 8.632z" class="prefix__cls-5" data-name="Path 589"/>
        </g>
        <path id="prefix__Path_2919" d="M.84 1.613V-8.44h6.787v1.754H3.036v2.31h4.306v1.754H3.036v4.235zm11.208.114a4.086 4.086 0 0 1-1.954-.449A3.15 3.15 0 0 1 8.8.009a3.911 3.911 0 0 1-.46-1.932 3.911 3.911 0 0 1 .46-1.932 3.1 3.1 0 0 1 1.3-1.262 4.14 4.14 0 0 1 1.954-.442A4.14 4.14 0 0 1 14-5.117a3.1 3.1 0 0 1 1.3 1.262 3.911 3.911 0 0 1 .456 1.932A3.911 3.911 0 0 1 15.3.009 3.15 3.15 0 0 1 14 1.278a4.086 4.086 0 0 1-1.952.449zm0-1.64q1.569 0 1.569-2.011a2.361 2.361 0 0 0-.406-1.511 1.413 1.413 0 0 0-1.162-.5q-1.569 0-1.569 2.011T12.048.087zm10.024-3.878l-1.212.128a1.875 1.875 0 0 0-1.269.506 1.631 1.631 0 0 0-.371 1.119v3.65h-2.153v-7h2.068V-4.2a2.319 2.319 0 0 1 2.182-1.326l.627-.043zm9.34-1.768a2.15 2.15 0 0 1 1.782.727 3.515 3.515 0 0 1 .585 2.224v4.221h-2.153v-4.149a1.828 1.828 0 0 0-.226-1.027.852.852 0 0 0-.749-.314 1.155 1.155 0 0 0-.955.428 1.871 1.871 0 0 0-.342 1.2v3.862h-2.149v-4.149a1.828 1.828 0 0 0-.221-1.027.852.852 0 0 0-.749-.314 1.155 1.155 0 0 0-.955.428 1.871 1.871 0 0 0-.342 1.2v3.862h-2.153v-7h2.1v.941a2.189 2.189 0 0 1 .877-.827 2.7 2.7 0 0 1 1.262-.285 2.033 2.033 0 0 1 2.082 1.3 2.508 2.508 0 0 1 .955-.948 2.688 2.688 0 0 1 1.351-.353zm10.3 4.078h-4.568a1.8 1.8 0 0 0 .549 1.219 1.929 1.929 0 0 0 1.276.378 3.385 3.385 0 0 0 1.077-.178 3.468 3.468 0 0 0 .977-.506l.57 1.44a3.892 3.892 0 0 1-1.248.627 4.95 4.95 0 0 1-1.476.228A3.862 3.862 0 0 1 36.082.75a3.509 3.509 0 0 1-1.02-2.659 3.961 3.961 0 0 1 .442-1.9A3.24 3.24 0 0 1 36.73-5.1a3.437 3.437 0 0 1 1.782-.463 2.985 2.985 0 0 1 2.331.955 3.728 3.728 0 0 1 .863 2.6zm-3.137-2.6a1.268 1.268 0 0 0-.977.392 1.953 1.953 0 0 0-.449 1.134H39.9a1.861 1.861 0 0 0-.378-1.141 1.19 1.19 0 0 0-.952-.38zm9.44.285l-1.215.133a1.875 1.875 0 0 0-1.269.506 1.631 1.631 0 0 0-.371 1.119v3.65H43v-7h2.068V-4.2a2.319 2.319 0 0 1 2.182-1.326l.627-.043zm.713 5.4V-8.44h2.153V1.613zm8.655-6.987h2.11L55.267 4.18h-2.181l1.34-2.952-2.88-6.6h2.239l1.768 4.447zm16.17 6.987h-2.672l-4.363-4.625v4.634h-2.225V-8.44h2.224v4.42l4.221-4.42h2.624l-4.677 4.806zm.408-10.044h4.62a3.665 3.665 0 0 1 2.552.827 2.959 2.959 0 0 1 .913 2.31 2.959 2.959 0 0 1-.913 2.31 3.665 3.665 0 0 1-2.552.827h-2.4v3.779h-2.22zM78.3-3.848q1.668 0 1.668-1.44a1.372 1.372 0 0 0-.414-1.1 1.883 1.883 0 0 0-1.254-.355h-2.11v2.895zm5.19 5.461V-8.44h2.224V1.613zm7.743.128a7.831 7.831 0 0 1-2.2-.307 5.2 5.2 0 0 1-1.754-.848L87.992-1A5.582 5.582 0 0 0 91.258.016 2.814 2.814 0 0 0 92.7-.291a.948.948 0 0 0 .506-.848.838.838 0 0 0-.463-.756 6.193 6.193 0 0 0-1.643-.527 9.124 9.124 0 0 1-2.117-.656 2.766 2.766 0 0 1-1.155-.948 2.512 2.512 0 0 1-.364-1.39 2.738 2.738 0 0 1 .506-1.626 3.374 3.374 0 0 1 1.42-1.12 5.144 5.144 0 0 1 2.11-.406 6.786 6.786 0 0 1 2.06.314 4.223 4.223 0 0 1 1.576.841l-.713 1.583a4.85 4.85 0 0 0-2.909-1.012 2.43 2.43 0 0 0-1.369.335 1.051 1.051 0 0 0-.5.92.827.827 0 0 0 .193.563 1.6 1.6 0 0 0 .642.392 9.8 9.8 0 0 0 1.276.356 7.089 7.089 0 0 1 2.788 1.1 2.231 2.231 0 0 1 .848 1.854 2.651 2.651 0 0 1-1.1 2.246 5.033 5.033 0 0 1-3.063.817zm8.955-.014a4.086 4.086 0 0 1-1.954-.449 3.15 3.15 0 0 1-1.3-1.269 3.911 3.911 0 0 1-.456-1.932 3.911 3.911 0 0 1 .456-1.932 3.1 3.1 0 0 1 1.3-1.262 4.14 4.14 0 0 1 1.954-.442 4.14 4.14 0 0 1 1.954.442 3.1 3.1 0 0 1 1.3 1.262 3.911 3.911 0 0 1 .456 1.932 3.911 3.911 0 0 1-.456 1.932 3.15 3.15 0 0 1-1.3 1.269 4.086 4.086 0 0 1-1.958.449zm0-1.64q1.569 0 1.569-2.011a2.361 2.361 0 0 0-.406-1.511 1.413 1.413 0 0 0-1.162-.5q-1.569 0-1.569 2.011t1.564 2.011zm7.657-5.476h1.754v1.611h-1.754v5.39h-2.153v-5.39h-1.326v-1.61h1.326a2.926 2.926 0 0 1 .863-2.232 4.091 4.091 0 0 1 2.545-.848l.784-.043.128 1.583-.67.029a1.96 1.96 0 0 0-1.162.307 1.132 1.132 0 0 0-.335.92zm6.1 5.533a5.749 5.749 0 0 0 .684-.044l-.114 1.569a6.046 6.046 0 0 1-.827.057 3.3 3.3 0 0 1-2.331-.7 2.8 2.8 0 0 1-.734-2.125v-2.678H109.3v-1.611h1.326v-2.054h2.153v2.053h1.754v1.611h-1.754v2.668q-.004 1.254 1.165 1.254z" data-name="Path 2919" transform="translate(195.254 304.781)" style="fill:#4d4d4d"/>
    </g>
</svg>
