<svg id="Layer_2" data-name="Layer 2" xmlns="http://www.w3.org/2000/svg" width="209.565" height="47.514" viewBox="0 0 209.565 47.514">
  <defs>
    <style>
      .cls-1 {
        fill: #0075c9;
      }

      .cls-2 {
        fill: #ef402f;
      }

      .cls-3 {
        fill: #f4b223;
      }

      .cls-4 {
        fill: #2c9942;
      }
    </style>
  </defs>
  <g id="Layer_1" data-name="Layer 1" transform="translate(0)">
    <path id="Path_2921" data-name="Path 2921" class="cls-1" d="M27.68,9.55h3.351V21.8h.481L44.4,9.55h4.853L35.23,22.473l14.7,15.408H45.014L31.532,23.475H31.05V37.881H27.68Z" transform="translate(25.631 8.843)"/>
    <path id="Path_2922" data-name="Path 2922" class="cls-1" d="M40.77,9.55h8.4a17.006,17.006,0,0,1,3.756.385,9.38,9.38,0,0,1,3.159,1.271,6.452,6.452,0,0,1,2.2,2.407,7.492,7.492,0,0,1,.828,3.7,7.434,7.434,0,0,1-.886,3.852,6.779,6.779,0,0,1-2.253,2.407,9.3,9.3,0,0,1-3.024,1.252,15.157,15.157,0,0,1-3.12.347H44.14V37.9H40.77Zm3.37,12.423h5.682a6.934,6.934,0,0,0,4.1-1.136A4.122,4.122,0,0,0,55.5,17.293a4.122,4.122,0,0,0-1.579-3.544,6.933,6.933,0,0,0-4.1-1.136H44.14Z" transform="translate(37.752 8.843)"/>
    <path id="Path_2923" data-name="Path 2923" class="cls-1" d="M53.09,9.55h3.37V37.881H53.09Z" transform="translate(49.16 8.843)"/>
    <path id="Path_2924" data-name="Path 2924" class="cls-1" d="M72.832,14.891A4.834,4.834,0,0,0,70.6,12.965a7.088,7.088,0,0,0-2.927-.636,8.378,8.378,0,0,0-2.2.289,6.337,6.337,0,0,0-1.926.847,4.1,4.1,0,0,0-1.387,1.483A4.776,4.776,0,0,0,61.95,18.8a3.428,3.428,0,0,0,.982,1.348,7.511,7.511,0,0,0,1.926,1.117,24.306,24.306,0,0,0,2.85,1.04c1.079.347,2.157.713,3.178,1.117A10.9,10.9,0,0,1,73.6,24.945a6.7,6.7,0,0,1,1.926,2.311,7.569,7.569,0,0,1,.693,3.447,7.7,7.7,0,0,1-.828,3.7,7.8,7.8,0,0,1-2.234,2.581A10.13,10.13,0,0,1,69.982,38.5a14.079,14.079,0,0,1-3.717.5,13.478,13.478,0,0,1-2.483-.231,11.286,11.286,0,0,1-2.389-.674,9.842,9.842,0,0,1-2.138-1.213,6.991,6.991,0,0,1-1.714-1.81l2.812-2.427a6.086,6.086,0,0,0,2.562,2.369,7.993,7.993,0,0,0,5.662.481,6.105,6.105,0,0,0,1.926-.944,4.8,4.8,0,0,0,1.444-1.541A3.852,3.852,0,0,0,72.5,30.9a4.3,4.3,0,0,0-.443-2.138,3.852,3.852,0,0,0-1.348-1.425,9.765,9.765,0,0,0-2.33-1.079l-3.274-1.117a20.859,20.859,0,0,1-2.831-1.117A7.935,7.935,0,0,1,60.063,22.5a6.336,6.336,0,0,1-1.5-2.119,7.511,7.511,0,0,1-.539-3.024,7.338,7.338,0,0,1,2.966-6.105,9.842,9.842,0,0,1,3.082-1.541,12.346,12.346,0,0,1,3.6-.52,12.172,12.172,0,0,1,4.372.751,8.378,8.378,0,0,1,3.544,2.581Z" transform="translate(53.28 8.509)"/>
    <path id="Path_2925" data-name="Path 2925" class="cls-1" d="M84.011,38.965a15.408,15.408,0,0,1-5.951-1.136,14.1,14.1,0,0,1-4.68-3.1,13.925,13.925,0,0,1-3.082-4.7,16.621,16.621,0,0,1,0-11.883,13.925,13.925,0,0,1,3.082-4.719,14.1,14.1,0,0,1,4.68-3.12,16.159,16.159,0,0,1,11.9,0,14.1,14.1,0,0,1,4.68,3.1A13.924,13.924,0,0,1,97.7,18.126a16.621,16.621,0,0,1,0,11.9,13.925,13.925,0,0,1-3.082,4.719A14.1,14.1,0,0,1,90,37.828,15.408,15.408,0,0,1,84.011,38.965Zm0-3.139A10.728,10.728,0,0,0,92.1,32.4a11.441,11.441,0,0,0,2.292-3.756,13.039,13.039,0,0,0,0-9.148A11.441,11.441,0,0,0,92.1,15.737a11.214,11.214,0,0,0-16.178,0,11.44,11.44,0,0,0-2.292,3.756,13.039,13.039,0,0,0,0,9.148A11.44,11.44,0,0,0,75.922,32.4a10.728,10.728,0,0,0,8.089,3.409Z" transform="translate(64.077 8.491)"/>
    <path id="Path_2926" data-name="Path 2926" class="cls-1" d="M87.38,9.55h17.584v3.12H90.75v9.3h13.231v3.12H90.75V37.823H87.38Z" transform="translate(80.911 8.843)"/>
    <path id="Path_2927" data-name="Path 2927" class="cls-1" d="M119.431,12.67h-9.264V37.881H106.7V12.67H97.34V9.55h22.091Z" transform="translate(90.134 8.843)"/>
    <path id="Path_2928" data-name="Path 2928" class="cls-2" d="M2.889,15.31h0a2.908,2.908,0,0,0-2.042.847A2.87,2.87,0,0,0,0,18.2V30.39a2.908,2.908,0,0,0,.751,1.926,2.87,2.87,0,0,0,2.138.944H15.08a2.889,2.889,0,0,0,2.87-2.889h0a2.889,2.889,0,0,0-2.87-2.889H8.185a2.446,2.446,0,0,1-1.926-.924,2.369,2.369,0,0,1-.481-1.464V18.2a2.889,2.889,0,0,0-1.213-2.35,2.985,2.985,0,0,0-1.676-.539Z" transform="translate(0 14.177)"/>
    <path id="Path_2929" data-name="Path 2929" class="cls-3" d="M0,5.783V18.09a2.927,2.927,0,0,0,.828,2.022,2.831,2.831,0,0,0,2.022.828h0a2.927,2.927,0,0,0,2.927-2.908V11.138A2.407,2.407,0,0,1,8.147,8.769H15.1A2.831,2.831,0,0,0,17.95,5.9V5.783a2.735,2.735,0,0,0-.79-1.926,2.773,2.773,0,0,0-1.926-.847H2.793A2.793,2.793,0,0,0,0,5.783Z" transform="translate(0 2.787)"/>
    <path id="Path_2930" data-name="Path 2930" class="cls-4" d="M22.094,27.5H15.2A2.889,2.889,0,0,0,12.31,30.39h0a2.927,2.927,0,0,0,.5,1.618A2.889,2.889,0,0,0,15.2,33.279H27.39a2.889,2.889,0,0,0,2.889-2.889V18.2A2.889,2.889,0,0,0,27.39,15.31h0A2.908,2.908,0,0,0,24.5,18.2v6.895A2.369,2.369,0,0,1,22.094,27.5Z" transform="translate(11.399 14.177)"/>
    <path id="Path_2931" data-name="Path 2931" class="cls-1" d="M30.926,0H17.445A5.1,5.1,0,0,0,12.36,5.085V18.566a5.085,5.085,0,0,0,1.5,3.6,4.988,4.988,0,0,0,3.582,1.483H30.926a5.085,5.085,0,0,0,5.085-5.085V5.085A5.085,5.085,0,0,0,30.926,0Z" transform="translate(11.445)"/>
  </g>
</svg>
