<svg xmlns="http://www.w3.org/2000/svg" width="202" height="47.455" viewBox="0 0 202 47.455">
  <defs>
    <style>
      .cls-1 {
        fill: #ef402e;
      }

      .cls-2 {
        fill: #f2b71b;
      }

      .cls-3 {
        fill: #39a244;
      }

      .cls-4 {
        fill: #0064bf;
      }

      .cls-5 {
        fill: #404241;
      }
    </style>
  </defs>
  <g id="Logo" transform="translate(-126.082 -267.567)">
    <path id="Path_539" data-name="Path 539" class="cls-1" d="M128.971,303.941h-.006a2.882,2.882,0,0,0-2.882,2.881v12.192a2.882,2.882,0,0,0,2.882,2.882h12.192a2.881,2.881,0,0,0,2.881-2.882h0a2.881,2.881,0,0,0-2.881-2.882h-6.888a2.416,2.416,0,0,1-2.416-2.416v-6.894A2.882,2.882,0,0,0,128.971,303.941Z" transform="translate(0 -6.875)"/>
    <path id="Path_540" data-name="Path 540" class="cls-2" d="M126.082,277.49V289.8a2.852,2.852,0,0,0,2.851,2.852h0a2.918,2.918,0,0,0,2.919-2.918v-6.889a2.386,2.386,0,0,1,2.386-2.386h6.948a2.851,2.851,0,0,0,2.851-2.852v-.116a2.8,2.8,0,0,0-2.8-2.8H128.878A2.8,2.8,0,0,0,126.082,277.49Z" transform="translate(0 -1.347)"/>
    <path id="Path_541" data-name="Path 541" class="cls-3" d="M165.106,316.133h-6.9a2.882,2.882,0,0,0-2.881,2.882h0a2.882,2.882,0,0,0,2.881,2.882H170.4a2.882,2.882,0,0,0,2.881-2.882V306.822a2.882,2.882,0,0,0-2.881-2.881h0a2.882,2.882,0,0,0-2.882,2.881v6.894A2.415,2.415,0,0,1,165.106,316.133Z" transform="translate(-5.528 -6.875)"/>
    <rect id="Rectangle_1518" data-name="Rectangle 1518" class="cls-4" width="23.735" height="23.736" rx="6.267" transform="translate(149.801 267.567)"/>
    <g id="Group_692" data-name="Group 692" transform="translate(179.3 279.192)">
      <path id="Path_542" data-name="Path 542" class="cls-5" d="M208.664,290.051a10.83,10.83,0,0,0-5.433-1.3,11.616,11.616,0,0,0-6.191,1.613,10.446,10.446,0,0,0-3.985,4.34,14.192,14.192,0,0,0,.118,12.336,10.96,10.96,0,0,0,4.341,4.483,13.661,13.661,0,0,0,6.95,1.661,17.351,17.351,0,0,0,7.876-1.8l-.379-4.412a14.019,14.019,0,0,1-6.975,1.756,8.217,8.217,0,0,1-5.242-1.661,7.53,7.53,0,0,1-2.538-5.314h15.846a12.294,12.294,0,0,0,.332-2.894,10.961,10.961,0,0,0-1.21-5.219A8.8,8.8,0,0,0,208.664,290.051ZM197.4,298.14q1.185-4.934,5.788-4.934a4.426,4.426,0,0,1,3.606,1.423,5.3,5.3,0,0,1,1.186,3.511Z" transform="translate(-191.703 -283.195)"/>
      <path id="Path_543" data-name="Path 543" class="cls-5" d="M232.895,288.746a10.878,10.878,0,0,0-6.88,2.372l-.19-1.946h-4.7V312.7h5.314V295.53a6.106,6.106,0,0,1,5.124-2.324,4.69,4.69,0,0,1,4.01,1.613q1.209,1.613,1.209,5.124V312.7h5.267V299.61q0-5.075-2.277-7.97T232.895,288.746Z" transform="translate(-197.264 -283.195)"/>
      <path id="Path_544" data-name="Path 544" class="cls-5" d="M257.2,281.9l-5.314.569v5.409h-3.084l-.474,4.27h3.559v13.759a6.068,6.068,0,0,0,1.589,4.223,5.985,5.985,0,0,0,4.674,1.756h4.08l.474-4.318h-1.423a11.184,11.184,0,0,1-2.823-.238,1.446,1.446,0,0,1-1.02-1.019,11.483,11.483,0,0,1-.237-2.871V292.149h5.55v-4.27H257.2Z" transform="translate(-202.406 -281.901)"/>
      <path id="Path_545" data-name="Path 545" class="cls-5" d="M284.885,290.324a13.259,13.259,0,0,0-12.763,0,11,11,0,0,0-4.151,4.436,13.869,13.869,0,0,0,0,12.335,10.989,10.989,0,0,0,4.151,4.436,13.254,13.254,0,0,0,12.763,0,10.822,10.822,0,0,0,4.127-4.436,14.075,14.075,0,0,0,0-12.335A10.832,10.832,0,0,0,284.885,290.324Zm-1.59,16.3a5.913,5.913,0,0,1-4.816,2.088,5.841,5.841,0,0,1-4.791-2.088,10.3,10.3,0,0,1,0-11.362,5.816,5.816,0,0,1,4.791-2.112,5.887,5.887,0,0,1,4.816,2.112,10.185,10.185,0,0,1,0,11.362Z" transform="translate(-205.844 -283.184)"/>
      <path id="Path_546" data-name="Path 546" class="cls-5" d="M325.622,288.746a10.638,10.638,0,0,0-4.673.972,8.158,8.158,0,0,0-3.25,2.775,7.621,7.621,0,0,0-7.069-3.748,10.993,10.993,0,0,0-7.069,2.514l-.332-2.087h-4.412V312.7h5.314V295.578a6.1,6.1,0,0,1,5.171-2.372,4.355,4.355,0,0,1,3.677,1.565q1.21,1.566,1.21,5.172V312.7h5.266V299.42a7.523,7.523,0,0,1,1.234-4.507,4.631,4.631,0,0,1,4.032-1.708,4.23,4.23,0,0,1,3.677,1.542,8.4,8.4,0,0,1,1.115,4.863V312.7h5.313V299.325q0-5.124-2.276-7.851T325.622,288.746Z" transform="translate(-211.948 -283.195)"/>
      <path id="Path_547" data-name="Path 547" class="cls-5" d="M368.162,294.76a10.832,10.832,0,0,0-4.127-4.436,13.259,13.259,0,0,0-12.763,0,11,11,0,0,0-4.152,4.436,13.87,13.87,0,0,0,0,12.335,11,11,0,0,0,4.152,4.436,13.254,13.254,0,0,0,12.763,0,10.822,10.822,0,0,0,4.127-4.436,14.076,14.076,0,0,0,0-12.335Zm-5.717,11.861a5.913,5.913,0,0,1-4.816,2.088,5.842,5.842,0,0,1-4.791-2.088,10.3,10.3,0,0,1,0-11.362,5.817,5.817,0,0,1,4.791-2.112,5.887,5.887,0,0,1,4.816,2.112,10.182,10.182,0,0,1,0,11.362Z" transform="translate(-220.804 -283.184)"/>
    </g>
  </g>
</svg>
