<svg id="Shp_Insights" xmlns="http://www.w3.org/2000/svg" width="85.349" height="85.349" viewBox="0 0 85.349 85.349">
  <defs>
    <style>
      .cls-1 {
        fill: #ffda00;
      }
    </style>
  </defs>
  <path id="Path_593" data-name="Path 593" class="cls-1" d="M120.634,340.034h0a2.2,2.2,0,0,1-2.2-2.2V324.856a2.2,2.2,0,0,1,2.2-2.2h0a2.2,2.2,0,0,1,2.2,2.2v12.977A2.2,2.2,0,0,1,120.634,340.034Z" transform="translate(-77.959 -322.657)"/>
  <path id="Path_594" data-name="Path 594" class="cls-1" d="M131.029,342.875h0a2.2,2.2,0,0,1,0-3.11l9.177-9.177a2.2,2.2,0,0,1,3.112,0h0a2.2,2.2,0,0,1,0,3.112l-9.177,9.175A2.2,2.2,0,0,1,131.029,342.875Z" transform="translate(-70.467 -318.09)"/>
  <path id="Path_595" data-name="Path 595" class="cls-1" d="M135.336,349.736h0a2.2,2.2,0,0,1,2.2-2.2h12.977a2.2,2.2,0,0,1,2.2,2.2h0a2.2,2.2,0,0,1-2.2,2.2H137.537A2.2,2.2,0,0,1,135.336,349.736Z" transform="translate(-67.364 -307.063)"/>
  <path id="Path_596" data-name="Path 596" class="cls-1" d="M131.029,360.133h0a2.2,2.2,0,0,1,3.112,0l9.177,9.177a2.2,2.2,0,0,1,0,3.11h0a2.2,2.2,0,0,1-3.112,0l-9.177-9.175A2.2,2.2,0,0,1,131.029,360.133Z" transform="translate(-70.467 -299.571)"/>
  <path id="Path_597" data-name="Path 597" class="cls-1" d="M120.634,364.44h0a2.2,2.2,0,0,1,2.2,2.2v12.977a2.2,2.2,0,0,1-2.2,2.2h0a2.2,2.2,0,0,1-2.2-2.2V366.639A2.2,2.2,0,0,1,120.634,364.44Z" transform="translate(-77.959 -296.468)"/>
  <path id="Path_598" data-name="Path 598" class="cls-1" d="M113.773,360.133h0a2.2,2.2,0,0,1,0,3.112L104.6,372.42a2.2,2.2,0,0,1-3.11,0h0a2.2,2.2,0,0,1,0-3.11l9.177-9.177A2.2,2.2,0,0,1,113.773,360.133Z" transform="translate(-88.986 -299.571)"/>
  <path id="Path_599" data-name="Path 599" class="cls-1" d="M110.93,349.736h0a2.2,2.2,0,0,1-2.2,2.2H95.754a2.2,2.2,0,0,1-2.2-2.2h0a2.2,2.2,0,0,1,2.2-2.2h12.977A2.2,2.2,0,0,1,110.93,349.736Z" transform="translate(-93.553 -307.063)"/>
  <path id="Path_600" data-name="Path 600" class="cls-1" d="M113.773,342.877h0a2.2,2.2,0,0,1-3.112,0l-9.177-9.177a2.2,2.2,0,0,1,0-3.112h0a2.2,2.2,0,0,1,3.112,0l9.177,9.177A2.2,2.2,0,0,1,113.773,342.877Z" transform="translate(-88.986 -318.09)"/>
</svg>
